<svg xmlns="http://www.w3.org/2000/svg" width="104.508" height="27.575" viewBox="0 0 104.508 27.575"><defs><style>.a{fill:#fff;}.b{fill:#14a5a0;}.c{fill:#ea0c27;}.d{fill:#1a54b0;}.d,.e,.f{fill-rule:evenodd;}.e{fill:#fefefe;}.f{fill:#78b9eb;}</style></defs><g transform="translate(0 0)"><path class="a" d="M24.837-81.717,14.122-59.891a1.989,1.989,0,0,1-.75.813,2.043,2.043,0,0,1-1.1.308,2.015,2.015,0,0,1-1.082-.308,2.1,2.1,0,0,1-.765-.813L-.271-81.717H4.321l7.953,16.3,7.986-16.3Zm17.58,16.982a6.344,6.344,0,0,1-.3,1.838,5.494,5.494,0,0,1-.971,1.83,5.411,5.411,0,0,1-1.752,1.412,5.588,5.588,0,0,1-2.628.568h-7.4a6.344,6.344,0,0,1-1.839-.3,5.494,5.494,0,0,1-1.831-.971,5.411,5.411,0,0,1-1.412-1.752,5.588,5.588,0,0,1-.568-2.627,6.422,6.422,0,0,1,.3-1.846,5.479,5.479,0,0,1,.971-1.838,5.411,5.411,0,0,1,1.752-1.412,5.588,5.588,0,0,1,2.628-.568h7.4v3.913h-7.4a1.644,1.644,0,0,0-1.294.513,1.838,1.838,0,0,0-.458,1.27,1.557,1.557,0,0,0,.529,1.255A1.874,1.874,0,0,0,29.4-63h7.37a1.657,1.657,0,0,0,1.3-.5,1.809,1.809,0,0,0,.458-1.263V-70.5a1.682,1.682,0,0,0-.5-1.278,1.747,1.747,0,0,0-1.255-.473H27.756v-3.9h9.011a6.344,6.344,0,0,1,1.838.3,5.494,5.494,0,0,1,1.831.971,5.411,5.411,0,0,1,1.412,1.752,5.588,5.588,0,0,1,.568,2.628Zm7.67-14.913h-4.1v-3.71h4.1Zm0,20.563h-4.1V-76.147h4.1Zm22.646-5.76a6.266,6.266,0,0,1-.268,1.9,5.541,5.541,0,0,1-.709,1.484,4.826,4.826,0,0,1-1.026,1.089,5.986,5.986,0,0,1-1.223.733,6.286,6.286,0,0,1-1.294.418,6.184,6.184,0,0,1-1.241.133h-7.4a6.19,6.19,0,0,1-1.893-.268,5.423,5.423,0,0,1-1.476-.718,4.979,4.979,0,0,1-1.089-1.034,5.986,5.986,0,0,1-.733-1.223,6.286,6.286,0,0,1-.418-1.294,6.114,6.114,0,0,1-.133-1.223V-70.4a5.7,5.7,0,0,1,.576-2.675A5.533,5.533,0,0,1,55.84-74.86a5.477,5.477,0,0,1,1.87-.986,6.581,6.581,0,0,1,1.863-.3h7.4v4.1H59.6a1.709,1.709,0,0,0-1.246.418,1.639,1.639,0,0,0-.426,1.223v5.524a1.732,1.732,0,0,0,.418,1.263,1.639,1.639,0,0,0,1.223.426h7.4a1.657,1.657,0,0,0,1.246-.426,1.705,1.705,0,0,0,.41-1.231V-83.358h4.1Z" transform="translate(0.271 84.771)"/><path class="b" d="M292.017-52.664a2.574,2.574,0,0,1-.192,1,2.407,2.407,0,0,1-1.327,1.327,2.574,2.574,0,0,1-1,.192H271.461a7.452,7.452,0,0,1-1.49-.163,7.66,7.66,0,0,1-1.577-.51,7.293,7.293,0,0,1-1.49-.894,6.065,6.065,0,0,1-1.259-1.327,6.58,6.58,0,0,1-.874-1.808,7.636,7.636,0,0,1-.327-2.317V-70.7a7.45,7.45,0,0,1,.162-1.49,7.663,7.663,0,0,1,.51-1.577,7.065,7.065,0,0,1,.9-1.49,6.264,6.264,0,0,1,1.336-1.26,6.608,6.608,0,0,1,1.8-.874,7.541,7.541,0,0,1,2.307-.327h20.325v5H271.462a2.031,2.031,0,0,0-1.5.519,2.087,2.087,0,0,0-.519,1.539v13.5a2.016,2.016,0,0,0,.528,1.491,2.015,2.015,0,0,0,1.49.529h15.557v-6.269H273.711v-5.037H289.5a2.467,2.467,0,0,1,1,.2,2.494,2.494,0,0,1,.8.548,2.587,2.587,0,0,1,.529.8,2.454,2.454,0,0,1,.192.971Z" transform="translate(-187.51 77.719)"/><rect class="c" width="5.037" height="13.394" transform="translate(99.514 11.271) rotate(90)"/><rect class="c" width="5.037" height="13.394" transform="translate(95.335 20.487) rotate(180)"/><g transform="translate(85.501 8.439)"><path class="d" d="M136.465,299.969a2.964,2.964,0,0,0,1.859-1.024.39.39,0,0,0,.087-.33,5.246,5.246,0,0,0,1.2-3.092c0-1.476-.694-1.632-1.875-1.875v-.017a.46.46,0,0,0-.4-.226.417.417,0,1,0,0,.834.354.354,0,0,0,.262-.1l.017.018c1.146.243,1.442.3,1.442,1.372a4.863,4.863,0,0,1-1.077,2.779.41.41,0,0,0-.3.121,1.807,1.807,0,0,1-2.987.017.43.43,0,0,0-.3-.139,4.9,4.9,0,0,1-1.094-2.779c0-1.077.311-1.129,1.459-1.372v-.018a.394.394,0,0,0,.278.1.418.418,0,1,0-.4-.608h-.017c-1.163.26-1.875.4-1.875,1.893a5.25,5.25,0,0,0,1.215,3.109.355.355,0,0,0,.087.313,3.108,3.108,0,0,0,1.824,1.024l-.018,1.875a2.5,2.5,0,0,1-4.984,0V300.2a1.584,1.584,0,0,0,1.407-1.528,1.7,1.7,0,0,0-3.386,0A1.6,1.6,0,0,0,130.3,300.2v1.649a3.075,3.075,0,0,0,6.131,0v-1.875Z" transform="translate(-128.896 -293.404)"/><path class="e" d="M141.749,381.828h0a1.089,1.089,0,0,0,1.129-1.042,1.124,1.124,0,1,0-1.129,1.042Z" transform="translate(-140.067 -375.524)"/><path class="f" d="M147.194,385.5h0a.8.8,0,0,1,.815.781.812.812,0,0,1-.815.8.8.8,0,0,1-.815-.8.786.786,0,0,1,.815-.781Z" transform="translate(-145.529 -381.016)"/></g><rect class="c" width="5.037" height="4.076" transform="translate(95.335 11.169) rotate(180)"/></g></svg>