<svg id="appStore" xmlns="http://www.w3.org/2000/svg" width="135" height="40" viewBox="0 0 135 40">
  <path id="Path_83" data-name="Path 83" d="M130.2,0H4.7A4.7,4.7,0,0,0,0,4.7V35.2A4.717,4.717,0,0,0,4.7,40H130.2a4.781,4.781,0,0,0,4.8-4.7V4.7A4.781,4.781,0,0,0,130.2,0Z"/>
  <g id="Group_130" data-name="Group 130" transform="translate(12.804 6.2)">
    <path id="Path_84" data-name="Path 84" d="M30.1,19.8a5.868,5.868,0,0,1,2.8-4.9,5.873,5.873,0,0,0-4.7-2.5c-2-.2-3.9,1.2-4.9,1.2s-2.6-1.2-4.2-1.1a6.2,6.2,0,0,0-5.2,3.2c-2.3,3.9-.6,9.7,1.6,12.9,1.1,1.6,2.4,3.3,4,3.2s2.2-1,4.2-1c1.9,0,2.5,1,4.2,1s2.8-1.6,3.9-3.1a11.461,11.461,0,0,0,1.8-3.6C33.5,24.9,30.2,23.6,30.1,19.8Z" transform="translate(-12.804 -6.2)" fill="#fff"/>
    <path id="Path_85" data-name="Path 85" d="M26.9,10.3a5.492,5.492,0,0,0,1.3-4.1,6.579,6.579,0,0,0-3.8,1.9A5.293,5.293,0,0,0,23.1,12,4.3,4.3,0,0,0,26.9,10.3Z" transform="translate(-12.804 -6.2)" fill="#fff"/>
  </g>
  <path id="Path_86" data-name="Path 86" d="M53.6,31.5H51.3l-1.2-3.9H45.8l-1.2,3.9H42.4l4.3-13.3h2.6ZM49.8,26l-1.1-3.5c-.1-.4-.3-1.2-.7-2.5h0c-.1.6-.3,1.4-.6,2.5L46.2,26Z" fill="#fff"/>
  <path id="Path_87" data-name="Path 87" d="M64.7,26.6a5.58,5.58,0,0,1-1.3,3.9,4.107,4.107,0,0,1-2.9,1.3,2.849,2.849,0,0,1-2.7-1.4h0v5.1H55.7V25.1c0-1,0-2.1-.1-3.2h1.9l.1,1.5h0a3.61,3.61,0,0,1,3.2-1.7A3.41,3.41,0,0,1,63.6,23,5.721,5.721,0,0,1,64.7,26.6Zm-2.2.1a4.143,4.143,0,0,0-.6-2.3,2.323,2.323,0,0,0-1.9-.9,2.389,2.389,0,0,0-1.4.5,2.189,2.189,0,0,0-.8,1.4,1.952,1.952,0,0,0-.1.7v1.6a2.792,2.792,0,0,0,.6,1.8,2.06,2.06,0,0,0,1.7.7,2.323,2.323,0,0,0,1.9-.9A5.536,5.536,0,0,0,62.5,26.7Z" fill="#fff"/>
  <path id="Path_88" data-name="Path 88" d="M75.7,26.6a5.58,5.58,0,0,1-1.3,3.9,4.107,4.107,0,0,1-2.9,1.3,2.849,2.849,0,0,1-2.7-1.4h0v5.1H66.7V25.1c0-1,0-2.1-.1-3.2h1.9l.1,1.5h0a3.61,3.61,0,0,1,3.2-1.7A3.41,3.41,0,0,1,74.6,23,5.721,5.721,0,0,1,75.7,26.6Zm-2.2.1a4.143,4.143,0,0,0-.6-2.3,2.323,2.323,0,0,0-1.9-.9,2.389,2.389,0,0,0-1.4.5,2.189,2.189,0,0,0-.8,1.4,1.952,1.952,0,0,0-.1.7v1.6a2.792,2.792,0,0,0,.6,1.8,2.06,2.06,0,0,0,1.7.7,2.323,2.323,0,0,0,1.9-.9A5.536,5.536,0,0,0,73.5,26.7Z" fill="#fff"/>
  <path id="Path_89" data-name="Path 89" d="M88,27.8a3.631,3.631,0,0,1-1.2,2.8,5.219,5.219,0,0,1-3.6,1.2,6.569,6.569,0,0,1-3.4-.8l.5-1.8a5.533,5.533,0,0,0,3.1.8,3.557,3.557,0,0,0,1.9-.5A1.955,1.955,0,0,0,86,28a1.974,1.974,0,0,0-.6-1.4,5.011,5.011,0,0,0-1.8-1c-2.3-.9-3.5-2.1-3.5-3.8a3.424,3.424,0,0,1,1.2-2.7,4.826,4.826,0,0,1,3.3-1,6.679,6.679,0,0,1,3,.6L87,20.4a5.421,5.421,0,0,0-2.5-.6,2.61,2.61,0,0,0-1.8.6,1.346,1.346,0,0,0-.5,1.2,1.612,1.612,0,0,0,.6,1.3,6.487,6.487,0,0,0,1.9,1,7.188,7.188,0,0,1,2.5,1.6A3.094,3.094,0,0,1,88,27.8Z" fill="#fff"/>
  <path id="Path_90" data-name="Path 90" d="M95.1,23.5H92.8v4.7Q92.8,30,94,30a2.22,2.22,0,0,0,.9-.1l.1,1.6a4.164,4.164,0,0,1-1.7.2,2.792,2.792,0,0,1-2-.8,3.682,3.682,0,0,1-.7-2.6V23.5H89.2V21.9h1.4V20.1l2.1-.6v2.4H95v1.6Z" fill="#fff"/>
  <path id="Path_91" data-name="Path 91" d="M105.7,26.6a4.835,4.835,0,0,1-1.3,3.6,4.539,4.539,0,0,1-3.5,1.5,4.6,4.6,0,0,1-3.4-1.4,5.2,5.2,0,0,1-1.3-3.5,5.237,5.237,0,0,1,1.3-3.7,4.665,4.665,0,0,1,3.5-1.4,4.6,4.6,0,0,1,3.4,1.4A4.752,4.752,0,0,1,105.7,26.6Zm-2.2.1a4.383,4.383,0,0,0-.6-2.3,1.967,1.967,0,0,0-1.9-1.1,2.305,2.305,0,0,0-2,1.1,4.143,4.143,0,0,0-.6,2.3A4.383,4.383,0,0,0,99,29a2.146,2.146,0,0,0,3.8-.1A3.232,3.232,0,0,0,103.5,26.7Z" fill="#fff"/>
  <path id="Path_92" data-name="Path 92" d="M112.6,23.8c-.2,0-.4-.1-.7-.1a2,2,0,0,0-1.7.8,2.851,2.851,0,0,0-.5,1.9v5h-2.1V24.8a28.124,28.124,0,0,0-.1-3h1.9l.1,1.8h.1a3.269,3.269,0,0,1,1.1-1.5,2.976,2.976,0,0,1,1.5-.5h.5v2.2Z" fill="#fff"/>
  <path id="Path_93" data-name="Path 93" d="M122.2,26.3a3.083,3.083,0,0,1-.1,1h-6.4a2.792,2.792,0,0,0,.9,2.2,3.3,3.3,0,0,0,2.1.7,7.512,7.512,0,0,0,2.6-.5l.3,1.5a7.943,7.943,0,0,1-3.2.6,4.459,4.459,0,0,1-3.5-1.3,5.011,5.011,0,0,1-1.3-3.5,5.4,5.4,0,0,1,1.2-3.6,4.061,4.061,0,0,1,3.4-1.5,3.5,3.5,0,0,1,3.1,1.5A4.2,4.2,0,0,1,122.2,26.3Zm-2.1-.6a2.726,2.726,0,0,0-.4-1.6,1.852,1.852,0,0,0-1.7-.9,1.965,1.965,0,0,0-1.7.9,2.523,2.523,0,0,0-.6,1.7h4.4Z" fill="#fff"/>
  <path id="Path_94" data-name="Path 94" d="M49.1,10A3.387,3.387,0,0,1,48,12.7a4.655,4.655,0,0,1-2.8.8,6.622,6.622,0,0,1-1.5-.1V7a10.869,10.869,0,0,1,1.8-.1,4.023,4.023,0,0,1,2.6.7A3.312,3.312,0,0,1,49.1,10Zm-1.2,0a2.61,2.61,0,0,0-.6-1.8,2.445,2.445,0,0,0-1.8-.6,1.949,1.949,0,0,0-.8.1v4.9h.7a2.489,2.489,0,0,0,1.9-.7A2.546,2.546,0,0,0,47.9,10Z" fill="#fff"/>
  <path id="Path_95" data-name="Path 95" d="M54.9,11a2.792,2.792,0,0,1-.6,1.8,2.06,2.06,0,0,1-1.7.7,2.193,2.193,0,0,1-1.7-.7,2.523,2.523,0,0,1-.6-1.7,2.792,2.792,0,0,1,.6-1.8,2.06,2.06,0,0,1,1.7-.7,2.193,2.193,0,0,1,1.7.7A2.523,2.523,0,0,1,54.9,11Zm-1.1.1a2.016,2.016,0,0,0-.3-1.1.961.961,0,0,0-.9-.6,1.217,1.217,0,0,0-1,.6,2.167,2.167,0,0,0,0,2.2,1,1,0,0,0,1,.6.961.961,0,0,0,.9-.6A2.016,2.016,0,0,0,53.8,11.1Z" fill="#fff"/>
  <path id="Path_96" data-name="Path 96" d="M62.8,8.7l-1.5,4.7h-1l-.6-2a8.331,8.331,0,0,1-.4-1.5h0a8.331,8.331,0,0,1-.4,1.5l-.6,2h-1L55.9,8.7H57l.5,2.2.3,1.5h0c.1-.4.2-.9.4-1.5l.7-2.3h.9l.6,2.2a9.363,9.363,0,0,1,.4,1.6h0c.1-.5.2-1,.3-1.6l.6-2.2h1.1Z" fill="#fff"/>
  <path id="Path_97" data-name="Path 97" d="M68.2,13.4h-1V10.7c0-.8-.3-1.2-1-1.2a1.032,1.032,0,0,0-1.1,1.1v2.8h-1V8.7H65v.7h0a2.651,2.651,0,0,1,.5-.6,1.689,1.689,0,0,1,1-.3,1.5,1.5,0,0,1,1.1.4,1.94,1.94,0,0,1,.5,1.6v2.9Z" fill="#fff"/>
  <path id="Path_98" data-name="Path 98" d="M71.1,13.4h-1V6.6h1Z" fill="#fff"/>
  <path id="Path_99" data-name="Path 99" d="M77.3,11a2.792,2.792,0,0,1-.6,1.8,2.06,2.06,0,0,1-1.7.7,2.193,2.193,0,0,1-1.7-.7,2.523,2.523,0,0,1-.6-1.7,2.792,2.792,0,0,1,.6-1.8A2.06,2.06,0,0,1,75,8.6a2.193,2.193,0,0,1,1.7.7A2.523,2.523,0,0,1,77.3,11Zm-1.1.1a2.016,2.016,0,0,0-.3-1.1.961.961,0,0,0-.9-.6,1.217,1.217,0,0,0-1,.6,2.167,2.167,0,0,0,0,2.2,1,1,0,0,0,1,.6.961.961,0,0,0,.9-.6A2.016,2.016,0,0,0,76.2,11.1Z" fill="#fff"/>
  <path id="Path_100" data-name="Path 100" d="M82.3,13.4h-.9l-.1-.5h0a1.678,1.678,0,0,1-1.4.6,1.5,1.5,0,0,1-1.1-.4,1.777,1.777,0,0,1-.4-1,1.357,1.357,0,0,1,.7-1.3,3.14,3.14,0,0,1,2-.4v-.1c0-.6-.3-.9-1-.9a2.133,2.133,0,0,0-1.2.3L78.8,9a2.726,2.726,0,0,1,1.6-.4c1.2,0,1.8.6,1.8,1.9v1.7A6.822,6.822,0,0,1,82.3,13.4Zm-1.1-1.6v-.7c-1.2,0-1.7.3-1.7,1a1.421,1.421,0,0,0,.2.6.764.764,0,0,0,.5.2,1.421,1.421,0,0,0,.6-.2.918.918,0,0,0,.4-.6Z" fill="#fff"/>
  <path id="Path_101" data-name="Path 101" d="M88.3,13.4h-.9v-.8h0a1.551,1.551,0,0,1-1.5.9,1.622,1.622,0,0,1-1.4-.7,2.352,2.352,0,0,1-.6-1.7,2.883,2.883,0,0,1,.6-1.9A2.127,2.127,0,0,1,86,8.5a1.375,1.375,0,0,1,1.3.6h0V6.6h1v5.6A4.818,4.818,0,0,0,88.3,13.4Zm-1.1-2V10.3a.918.918,0,0,0-.4-.6.908.908,0,0,0-.7-.3,1.05,1.05,0,0,0-.9.5,2.133,2.133,0,0,0-.3,1.2,1.8,1.8,0,0,0,.3,1.1,1.05,1.05,0,0,0,.9.5.909.909,0,0,0,.8-.4A1.222,1.222,0,0,0,87.2,11.4Z" fill="#fff"/>
  <path id="Path_102" data-name="Path 102" d="M97.2,11a2.792,2.792,0,0,1-.6,1.8,2.06,2.06,0,0,1-1.7.7,2.193,2.193,0,0,1-1.7-.7,2.523,2.523,0,0,1-.6-1.7,2.792,2.792,0,0,1,.6-1.8,2.06,2.06,0,0,1,1.7-.7,2.193,2.193,0,0,1,1.7.7A2.523,2.523,0,0,1,97.2,11Zm-1,.1a2.016,2.016,0,0,0-.3-1.1.961.961,0,0,0-.9-.6,1.217,1.217,0,0,0-1,.6,2.167,2.167,0,0,0,0,2.2,1,1,0,0,0,1,.6.961.961,0,0,0,.9-.6A2.016,2.016,0,0,0,96.2,11.1Z" fill="#fff"/>
  <path id="Path_103" data-name="Path 103" d="M102.9,13.4h-1V10.7c0-.8-.3-1.2-1-1.2a1.032,1.032,0,0,0-1.1,1.1v2.8h-1V8.7h.9v.7h0a2.651,2.651,0,0,1,.5-.6,1.689,1.689,0,0,1,1-.3,1.5,1.5,0,0,1,1.1.4,1.94,1.94,0,0,1,.5,1.6v2.9Z" fill="#fff"/>
  <path id="Path_104" data-name="Path 104" d="M109.9,9.5h-1.2v2.3q0,.9.6.9h.5v.8a1.949,1.949,0,0,1-.8.1,1.284,1.284,0,0,1-1-.4,2.269,2.269,0,0,1-.3-1.3V9.5H107V8.7h.7V7.9l1-.3V8.8h1.2v.7Z" fill="#fff"/>
  <path id="Path_105" data-name="Path 105" d="M115.5,13.4h-1V10.7c0-.8-.3-1.3-.9-1.3a.963.963,0,0,0-1,.7v3.2h-1V6.6h1V9.4h0a1.6,1.6,0,0,1,1.4-.8,1.5,1.5,0,0,1,1.1.4,2.066,2.066,0,0,1,.5,1.6v2.8Z" fill="#fff"/>
  <path id="Path_106" data-name="Path 106" d="M121.2,10.9v.5H118a1.433,1.433,0,0,0,.5,1.1,1.689,1.689,0,0,0,1,.3,5.067,5.067,0,0,0,1.3-.2l.2.7a3.808,3.808,0,0,1-1.6.3,2.352,2.352,0,0,1-1.7-.6,2.352,2.352,0,0,1-.6-1.7,2.792,2.792,0,0,1,.6-1.8,2.088,2.088,0,0,1,1.6-.8,1.645,1.645,0,0,1,1.5.8A1.955,1.955,0,0,1,121.2,10.9Zm-1-.3a1.884,1.884,0,0,0-.2-.8,1,1,0,0,0-1.6,0,1.136,1.136,0,0,0-.3.8Z" fill="#fff"/>
</svg>
