<svg xmlns="http://www.w3.org/2000/svg" width="110.104" height="110" viewBox="0 0 110.104 110">
  <g id="Group_42973" data-name="Group 42973" transform="translate(-1157.898 -1605)">
    <g id="Group_70" data-name="Group 70" transform="translate(1784.901 1189.39)">
      <rect id="Rectangle_6" data-name="Rectangle 6" width="110" height="110" transform="translate(-627.001 415.61)" fill="#fff" opacity="0"/>
      <g id="Group_40" data-name="Group 40" transform="translate(-627.001 417.248)">
        <path id="Path_38" data-name="Path 38" d="M145.723,153.816h1.627v1.13c0,6.132,4.541,13.1,10.161,16.524v5.667a1.213,1.213,0,0,1-.856,1.158l-7.15,3.81.934.935a23.818,23.818,0,0,0,33.622,0l.933-.934-7.155-3.81a1.213,1.213,0,0,1-.856-1.158v-5.712c5.623-3.425,10.161-10.387,10.161-16.521v-1.086h1.627a2.789,2.789,0,0,0,2.789-2.789v-5.462h0a1.51,1.51,0,0,0-1.51-1.5H144.444a1.51,1.51,0,0,0-1.51,1.5h0v5.462A2.789,2.789,0,0,0,145.723,153.816Z" transform="translate(-112.197 -114.417)" fill="#fed9a8"/>
        <path id="SVGCleanerId_0" d="M163.472,142.714c0,7.584,6.947,16.45,14.29,18.3,4.772,1.2,6.168,1.212,10.944.024l.218-.055c7.369-1.832,14.343-10.712,14.343-18.31v-14.2H163.472Z" transform="translate(-128.318 -102.184)" fill="#fed9a8"/>
        <g id="Group_37" data-name="Group 37" transform="translate(35.154 26.292)">
          <path id="SVGCleanerId_0_1_" d="M163.472,142.714c0,7.584,6.947,16.45,14.29,18.3,4.772,1.2,6.168,1.212,10.944.024l.218-.055c7.369-1.832,14.343-10.712,14.343-18.31v-14.2H163.472Z" transform="translate(-163.472 -128.476)" fill="#fed9a8"/>
        </g>
        <path id="Path_39" data-name="Path 39" d="M268.83,128.477v17.544c0,5.768-4.013,12.266-9.167,15.87a27.355,27.355,0,0,0,4.549-.851l.218-.055c7.369-1.832,14.343-10.712,14.343-18.31v-14.2Z" transform="translate(-203.825 -102.184)" fill="#f4c892"/>
        <path id="Path_40" data-name="Path 40" d="M98.161,316.891l-23.338-8.248a1.3,1.3,0,0,0-1.351.308l-1.612,1.619a23.817,23.817,0,0,1-33.621,0l-1.612-1.619a1.3,1.3,0,0,0-1.351-.308l-23.338,8.248A16.434,16.434,0,0,0,1.019,331.348L.006,347.167a3.584,3.584,0,0,0,3.574,3.814H106.518a3.584,3.584,0,0,0,3.574-3.814l-1.013-15.819a16.434,16.434,0,0,0-10.917-14.457Z" transform="translate(0.001 -243.55)" fill="#1a54b0"/>
        <path id="Path_41" data-name="Path 41" d="M332.078,414.3H320.9a2.013,2.013,0,0,1-2.013-2.013V409.2a2.013,2.013,0,0,1,2.013-2.013h11.179a2.013,2.013,0,0,1,2.013,2.013v3.091A2.013,2.013,0,0,1,332.078,414.3Z" transform="translate(-250.313 -320.962)" fill="#e1effb"/>
        <path id="Path_45" data-name="Path 45" d="M110.091,347.167l-1.013-15.819a16.434,16.434,0,0,0-10.917-14.456l-23.338-8.248a1.3,1.3,0,0,0-1.351.308L71.86,310.57q-.2.2-.41.4L88.219,316.9a16.434,16.434,0,0,1,10.917,14.456l1.013,15.819h0a.527.527,0,0,1-.532.549H93.169V328.763a1.645,1.645,0,1,0-3.29,0v18.955H20.222V328.761a1.645,1.645,0,0,0-3.29,0v18.958H3.58a3.58,3.58,0,0,1-3.442-2.6l-.131,2.053a3.584,3.584,0,0,0,3.574,3.814H106.518a3.584,3.584,0,0,0,3.574-3.815Z" transform="translate(0.001 -243.55)" fill="#1a54b0"/>
      </g>
      <path id="Path_135" data-name="Path 135" d="M204.209,91.485c-9.139,0-17.008-5.887-18.8-14.065A60.615,60.615,0,0,1,184,64.441V56.033c0-10.185,9.048-18.442,20.209-18.442s20.209,8.257,20.209,18.442v8.408a60.61,60.61,0,0,1-1.408,12.978C221.218,85.6,213.349,91.485,204.209,91.485Z" transform="translate(-776.343 385.813)" fill="#fed9a8"/>
      <path id="Path_139" data-name="Path 139" d="M216.879,30.147,214.644,28.1c-2.825-3.239-7.1-4.1-11.627-4.1H199.45c-4.524,0-8.8.86-11.627,4.1l-2.235,2.049c-8.94,6.147-4.47,18.442-4.47,18.442a43.9,43.9,0,0,0,8.94-14.344,35.508,35.508,0,0,0,22.351,0,43.9,43.9,0,0,0,8.94,14.344S225.819,34.246,216.879,30.147Z" transform="translate(-773.368 395.923)"/>
    </g>
    <g id="Group_140" data-name="Group 140" transform="translate(1192.675 1665.322)">
      <path id="Path_76" data-name="Path 76" d="M169.885,298.514A1.867,1.867,0,0,1,168,296.666V263.394A7.469,7.469,0,0,1,175.542,256h1.885v3.7h-1.885a3.734,3.734,0,0,0-3.771,3.7v33.272A1.867,1.867,0,0,1,169.885,298.514Z" transform="translate(-168 -256)" fill="#14a5a0"/>
      <path id="Path_77" data-name="Path 77" d="M308.74,376.511h-3.771V372.74h1.885v-9.427a7.542,7.542,0,1,0-15.084,0v9.427h1.885v3.771h-3.771A1.885,1.885,0,0,1,288,374.625V363.313a11.313,11.313,0,1,1,22.625,0v11.313A1.885,1.885,0,0,1,308.74,376.511Z" transform="translate(-262.657 -330.225)" fill="#14a5a0"/>
      <path id="Path_78" data-name="Path 78" d="M313.427,280.511h-3.771V263.542a3.775,3.775,0,0,0-3.771-3.771H304V256h1.885a7.55,7.55,0,0,1,7.542,7.542Z" transform="translate(-274.218 -256)" fill="#14a5a0"/>
    </g>
    <ellipse id="Ellipse_14" data-name="Ellipse 14" cx="5.5" cy="6" rx="5.5" ry="6" transform="translate(1189 1696)" fill="#14a5a0"/>
  </g>
</svg>
