<svg xmlns="http://www.w3.org/2000/svg" width="101" height="101.796" viewBox="0 0 101 101.796">
  <g id="Group_69" data-name="Group 69" transform="translate(738.162 -415.567)">
    <rect id="Rectangle_4" data-name="Rectangle 4" width="101" height="101" transform="translate(-738.163 415.567)" fill="#fff" opacity="0"/>
    <g id="Group_42" data-name="Group 42" transform="translate(-738.001 417.154)">
      <g id="calendar" transform="translate(0 0)">
        <g id="Group_11" data-name="Group 11" transform="translate(0 25.253)">
          <path id="Path_8" data-name="Path 8" d="M0,134v66.809a8,8,0,0,0,7.829,8.148H92.384a8,8,0,0,0,7.829-8.148V134Z" transform="translate(0.001 -134)" fill="#d8dce1"/>
        </g>
        <g id="Group_12" data-name="Group 12" transform="translate(0 2.44)">
          <path id="Path_9" data-name="Path 9" d="M92.384,22H7.829A8,8,0,0,0,0,30.148V44.813H100.218V30.148A8,8,0,0,0,92.384,22ZM12.527,38.3a4.892,4.892,0,0,1,0-9.776,4.892,4.892,0,0,1,0,9.776Zm75.16,0a4.892,4.892,0,1,1,4.7-4.889,4.794,4.794,0,0,1-4.7,4.889Z" transform="translate(0.001 -22)" fill="#1a54b0"/>
        </g>
        <g id="Group_28" data-name="Group 28" transform="translate(12.008 39.914)">
          <g id="Group_13" data-name="Group 13" transform="translate(31.316 0)">
            <path id="Path_10" data-name="Path 10" d="M230.328,206a6.523,6.523,0,1,0,6.263,6.518A6.4,6.4,0,0,0,230.328,206Z" transform="translate(-223.544 -205.995)" fill="#fff"/>
          </g>
          <g id="Group_14" data-name="Group 14" transform="translate(15.658 0)">
            <path id="Path_11" data-name="Path 11" d="M150.328,206a6.523,6.523,0,1,0,6.263,6.518A6.4,6.4,0,0,0,150.328,206Z" transform="translate(-143.544 -205.995)" fill="#fff"/>
          </g>
          <g id="Group_15" data-name="Group 15" transform="translate(0 0)">
            <path id="Path_12" data-name="Path 12" d="M70.328,206a6.523,6.523,0,1,0,6.263,6.518A6.4,6.4,0,0,0,70.328,206Z" transform="translate(-63.544 -205.995)" fill="#fff"/>
          </g>
          <g id="Group_16" data-name="Group 16" transform="translate(46.974 0)">
            <path id="Path_13" data-name="Path 13" d="M310.328,206a6.523,6.523,0,1,0,6.263,6.518A6.4,6.4,0,0,0,310.328,206Z" transform="translate(-303.544 -205.995)" fill="#fff"/>
          </g>
          <g id="Group_17" data-name="Group 17" transform="translate(63.153 0)">
            <path id="Path_14" data-name="Path 14" d="M390.263,219.037A6.523,6.523,0,1,0,384,212.518,6.4,6.4,0,0,0,390.263,219.037Z" transform="translate(-383.999 -205.995)" fill="#fff"/>
          </g>
          <g id="Group_18" data-name="Group 18" transform="translate(31.316 16.295)">
            <path id="Path_15" data-name="Path 15" d="M230.328,286a6.523,6.523,0,1,0,6.263,6.518A6.4,6.4,0,0,0,230.328,286Z" transform="translate(-223.544 -285.995)" fill="#fff"/>
          </g>
          <g id="Group_19" data-name="Group 19" transform="translate(15.658 16.295)">
            <path id="Path_16" data-name="Path 16" d="M150.328,286a6.523,6.523,0,1,0,6.263,6.518A6.4,6.4,0,0,0,150.328,286Z" transform="translate(-143.544 -285.995)" fill="#fff"/>
          </g>
          <g id="Group_20" data-name="Group 20" transform="translate(0 16.295)">
            <path id="Path_17" data-name="Path 17" d="M70.328,286a6.523,6.523,0,1,0,6.263,6.518A6.4,6.4,0,0,0,70.328,286Z" transform="translate(-63.544 -285.995)" fill="#fff"/>
          </g>
          <g id="Group_21" data-name="Group 21" transform="translate(46.974 16.295)">
            <path id="Path_18" data-name="Path 18" d="M310.328,286a6.523,6.523,0,1,0,6.263,6.518A6.4,6.4,0,0,0,310.328,286Z" transform="translate(-303.544 -285.995)" fill="#fff"/>
          </g>
          <g id="Group_22" data-name="Group 22" transform="translate(62.634 16.295)">
            <path id="Path_19" data-name="Path 19" d="M390.328,286a6.523,6.523,0,1,0,6.263,6.518A6.4,6.4,0,0,0,390.328,286Z" transform="translate(-383.544 -285.995)" fill="#fff"/>
          </g>
          <g id="Group_23" data-name="Group 23" transform="translate(31.316 32.59)">
            <path id="Path_20" data-name="Path 20" d="M230.328,366a6.523,6.523,0,1,0,6.263,6.518A6.4,6.4,0,0,0,230.328,366Z" transform="translate(-223.544 -365.995)" fill="#fff"/>
          </g>
          <g id="Group_24" data-name="Group 24" transform="translate(15.658 32.59)">
            <path id="Path_21" data-name="Path 21" d="M150.328,366a6.523,6.523,0,1,0,6.263,6.518A6.4,6.4,0,0,0,150.328,366Z" transform="translate(-143.544 -365.995)" fill="#fff"/>
          </g>
          <g id="Group_25" data-name="Group 25" transform="translate(0 32.59)">
            <path id="Path_22" data-name="Path 22" d="M70.328,366a6.523,6.523,0,1,0,6.263,6.518A6.4,6.4,0,0,0,70.328,366Z" transform="translate(-63.544 -365.995)" fill="#fff"/>
          </g>
          <g id="Group_26" data-name="Group 26" transform="translate(46.974 32.59)">
            <path id="Path_23" data-name="Path 23" d="M310.328,366a6.523,6.523,0,1,0,6.263,6.518A6.4,6.4,0,0,0,310.328,366Z" transform="translate(-303.544 -365.995)" fill="#fff"/>
          </g>
          <g id="Group_27" data-name="Group 27" transform="translate(62.634 32.59)">
            <path id="Path_24" data-name="Path 24" d="M390.328,366a6.523,6.523,0,1,0,6.263,6.518A6.4,6.4,0,0,0,390.328,366Z" transform="translate(-383.544 -365.995)" fill="#fff"/>
          </g>
        </g>
        <g id="Group_30" data-name="Group 30" transform="translate(10.178 0)">
          <g id="Group_29" data-name="Group 29" transform="translate(0)">
            <path id="Path_25" data-name="Path 25" d="M54.349,26.295A2.4,2.4,0,0,1,52,23.85V12.443a2.35,2.35,0,1,1,4.7,0V23.85a2.4,2.4,0,0,1-2.348,2.445Z" transform="translate(-51.998 -10.003)" fill="#5c546a"/>
          </g>
        </g>
        <g id="Group_32" data-name="Group 32" transform="translate(85.338 0)">
          <g id="Group_31" data-name="Group 31" transform="translate(0)">
            <path id="Path_26" data-name="Path 26" d="M438.349,26.295A2.4,2.4,0,0,1,436,23.85V12.443a2.35,2.35,0,1,1,4.7,0V23.85A2.4,2.4,0,0,1,438.349,26.295Z" transform="translate(-435.998 -10.003)" fill="#5c546a"/>
          </g>
        </g>
        <g id="Group_33" data-name="Group 33" transform="translate(12.529 39.919)">
          <ellipse id="Ellipse_1" data-name="Ellipse 1" cx="6.263" cy="6.518" rx="6.263" ry="6.518" transform="translate(0 0)" fill="#14a5a0"/>
        </g>
        <g id="Group_34" data-name="Group 34" transform="translate(43.845 72.508)">
          <ellipse id="Ellipse_2" data-name="Ellipse 2" cx="6.263" cy="6.518" rx="6.263" ry="6.518" transform="translate(0 0)" fill="#14a5a0"/>
        </g>
        <g id="Group_35" data-name="Group 35" transform="translate(59.503 56.213)">
          <ellipse id="Ellipse_3" data-name="Ellipse 3" cx="6.263" cy="6.518" rx="6.263" ry="6.518" transform="translate(0 0)" fill="#14a5a0"/>
        </g>
      </g>
    </g>
  </g>
</svg>
