<svg xmlns="http://www.w3.org/2000/svg" width="146" height="39" viewBox="0 0 146 39">
  <g id="Group_42977" data-name="Group 42977" transform="translate(0 -0.427)">
    <g id="Group_14" data-name="Group 14" transform="translate(0 1)">
      <circle id="Ellipse_4" data-name="Ellipse 4" cx="19" cy="19" r="19" transform="translate(0 0.427)" fill="#fff" opacity="0.8"/>
      <path id="Icon_awesome-facebook-f" data-name="Icon awesome-facebook-f" d="M10.588,10.091l.5-3.247H7.971V4.738A1.623,1.623,0,0,1,9.8,2.984h1.416V.219A17.271,17.271,0,0,0,8.7,0C6.138,0,4.461,1.555,4.461,4.37V6.845H1.609v3.247H4.461V17.94h3.51V10.091Z" transform="translate(12.471 9.899)"/>
    </g>
    <g id="Group_15" data-name="Group 15" transform="translate(54 1)" opacity="0.8">
      <circle id="Ellipse_4-2" data-name="Ellipse 4" cx="19" cy="19" r="19" transform="translate(0 0.427)" fill="#fff"/>
    </g>
    <g id="Group_16" data-name="Group 16" transform="translate(108 0)" opacity="0.8">
      <circle id="Ellipse_4-3" data-name="Ellipse 4" cx="19" cy="19" r="19" transform="translate(0 0.427)" fill="#fff"/>
    </g>
    <path id="Icon_awesome-twitter" data-name="Icon awesome-twitter" d="M17.159,7.252c.012.17.012.34.012.51A11.075,11.075,0,0,1,6.019,18.913,11.076,11.076,0,0,1,0,17.154a8.109,8.109,0,0,0,.947.049,7.85,7.85,0,0,0,4.866-1.675,3.926,3.926,0,0,1-3.665-2.718,4.943,4.943,0,0,0,.74.061,4.145,4.145,0,0,0,1.031-.133A3.92,3.92,0,0,1,.777,8.89V8.841a3.947,3.947,0,0,0,1.772.5A3.925,3.925,0,0,1,1.335,4.1,11.141,11.141,0,0,0,9.417,8.2a4.425,4.425,0,0,1-.1-.9A3.923,3.923,0,0,1,16.1,4.619a7.717,7.717,0,0,0,2.488-.947,3.909,3.909,0,0,1-1.723,2.16,7.858,7.858,0,0,0,2.257-.607,8.425,8.425,0,0,1-1.966,2.026Z" transform="translate(63.257 9.079)"/>
    <path id="Icon_awesome-instagram" data-name="Icon awesome-instagram" d="M8.805,6.529a4.516,4.516,0,1,0,4.516,4.516A4.509,4.509,0,0,0,8.805,6.529Zm0,7.452a2.936,2.936,0,1,1,2.936-2.936A2.941,2.941,0,0,1,8.805,13.98Zm5.754-7.637a1.053,1.053,0,1,1-1.053-1.053A1.051,1.051,0,0,1,14.559,6.344ZM17.55,7.413a5.213,5.213,0,0,0-1.423-3.691A5.247,5.247,0,0,0,12.437,2.3c-1.454-.083-5.813-.083-7.267,0A5.239,5.239,0,0,0,1.479,3.718,5.23,5.23,0,0,0,.057,7.409c-.083,1.454-.083,5.813,0,7.267a5.213,5.213,0,0,0,1.423,3.691A5.254,5.254,0,0,0,5.17,19.789c1.454.083,5.813.083,7.267,0a5.213,5.213,0,0,0,3.691-1.423,5.247,5.247,0,0,0,1.423-3.691c.083-1.454.083-5.809,0-7.263Zm-1.879,8.823A2.972,2.972,0,0,1,14,17.911c-1.159.46-3.911.354-5.192.354s-4.036.1-5.192-.354a2.972,2.972,0,0,1-1.674-1.674c-.46-1.159-.354-3.911-.354-5.192s-.1-4.036.354-5.192A2.972,2.972,0,0,1,3.614,4.178c1.159-.46,3.911-.354,5.192-.354s4.036-.1,5.192.354a2.972,2.972,0,0,1,1.674,1.674c.46,1.159.354,3.911.354,5.192S16.131,15.081,15.672,16.236Z" transform="translate(117.904 7.88)"/>
  </g>
</svg>
