<svg xmlns="http://www.w3.org/2000/svg" width="22.291" height="20.699" viewBox="0 0 22.291 20.699">
  <path id="Icon_ionic-ios-star" data-name="Icon ionic-ios-star" d="M23.7,10.54H16.376L14.152,3.9a.806.806,0,0,0-1.513,0L10.415,10.54H3.046a.8.8,0,0,0-.8.8.585.585,0,0,0,.015.134.765.765,0,0,0,.333.562l6.016,4.239L6.305,22.985a.8.8,0,0,0,.274.9.77.77,0,0,0,.448.194.975.975,0,0,0,.5-.179L13.4,19.71,19.267,23.9a.932.932,0,0,0,.5.179.715.715,0,0,0,.443-.194.789.789,0,0,0,.274-.9l-2.309-6.712,5.966-4.279.144-.124a.835.835,0,0,0,.259-.532A.843.843,0,0,0,23.7,10.54Z" transform="translate(-2.25 -3.375)" fill="#ffc437"/>
</svg>
