<svg id="playStore" xmlns="http://www.w3.org/2000/svg" xmlns:xlink="http://www.w3.org/1999/xlink" width="135" height="40" viewBox="0 0 135 40">
  <defs>
    <linearGradient id="linear-gradient" x1="40.389" y1="-55.093" x2="39.388" y2="-55.916" gradientUnits="objectBoundingBox">
      <stop offset="0" stop-color="#d6ffa1"/>
      <stop offset="0.326" stop-color="#93e2a7"/>
      <stop offset="1" stop-color="#00a3b5"/>
    </linearGradient>
    <linearGradient id="linear-gradient-2" x1="64.19" y1="-90.596" x2="66.325" y2="-89.881" gradientUnits="objectBoundingBox">
      <stop offset="0" stop-color="#ff177b"/>
      <stop offset="0.672" stop-color="#ffa976"/>
      <stop offset="1" stop-color="#ffec73"/>
    </linearGradient>
    <linearGradient id="linear-gradient-3" x1="50.728" y1="-27.211" x2="48.967" y2="-27.754" gradientUnits="objectBoundingBox">
      <stop offset="0" stop-color="#63ffd4"/>
      <stop offset="0.485" stop-color="#32a0ba"/>
      <stop offset="0.835" stop-color="#1262a9"/>
      <stop offset="1" stop-color="#064aa2"/>
    </linearGradient>
    <linearGradient id="linear-gradient-4" x1="41.043" y1="-56.332" x2="40.176" y2="-54.833" gradientUnits="objectBoundingBox">
      <stop offset="0" stop-color="#ff4521"/>
      <stop offset="0.341" stop-color="#d43e65"/>
      <stop offset="0.794" stop-color="#9f36b9"/>
      <stop offset="1" stop-color="#8a33db"/>
    </linearGradient>
  </defs>
  <path id="Path_107" data-name="Path 107" d="M130.2,0H4.7A4.7,4.7,0,0,0,0,4.7V35.2A4.717,4.717,0,0,0,4.7,40H130.2a4.781,4.781,0,0,0,4.8-4.7V4.7A4.781,4.781,0,0,0,130.2,0Z"/>
  <g id="Group_137" data-name="Group 137" transform="translate(16.8 6.1)">
    <g id="Group_133" data-name="Group 133" transform="translate(21.3 10.9)">
      <g id="Group_131" data-name="Group 131">
        <path id="Path_108" data-name="Path 108" d="M88.6,28.3l-.8.8-.6.3a3.61,3.61,0,0,1-1.7.3,3.345,3.345,0,0,1-2.3-.7,4.731,4.731,0,0,1-1.8-3.7,4.022,4.022,0,0,1,4-4.1,3.743,3.743,0,0,1,1.8.5,2.657,2.657,0,0,1,1.2,1.7l-4.1,1.7-1.4.1c.4,2.2,1.9,3.5,3.6,3.5a4.378,4.378,0,0,0,2.1-.4Zm-2.5-4.5c.3-.1.5-.2.5-.5a1.734,1.734,0,0,0-1.7-1.5,2.109,2.109,0,0,0-2,2.4,2.769,2.769,0,0,0,.1.9Z" transform="translate(-38.1 -17)" fill="#fff"/>
        <path id="Path_109" data-name="Path 109" d="M80,28.1c0,.7.1.8.7.8a2.769,2.769,0,0,1,.9.1l-.6.4H77.9c.4-.5.5-.6.5-.9V17.6H77l1.3-.6h2.5a1.327,1.327,0,0,0-.8,1.1Z" transform="translate(-38.1 -17)" fill="#fff"/>
        <path id="Path_110" data-name="Path 110" d="M75.2,22.1a2.857,2.857,0,0,1,1.2,2.4A2.9,2.9,0,0,1,74.9,27a1.346,1.346,0,0,0-.5.9c0,.4.3.6.5.8l.6.5c.8.7,1.5,1.2,1.5,2.5,0,1.7-1.6,3.3-4.6,3.3-2.5,0-3.8-1.2-3.8-2.5A2.426,2.426,0,0,1,70,30.4a6.692,6.692,0,0,1,3.4-.8,2.2,2.2,0,0,1-.5-1.2,1.445,1.445,0,0,1,.2-.7h-.6a2.756,2.756,0,0,1-2.9-2.8,3.543,3.543,0,0,1,1.1-2.4,4.949,4.949,0,0,1,3.1-1h3.6l-1.1.6Zm-1.3,7.8h-.4a4.98,4.98,0,0,0-1.8.3A1.947,1.947,0,0,0,70.2,32c0,1.2,1.2,2.1,3.1,2.1,1.7,0,2.6-.8,2.6-1.9C75.8,31.4,75.3,30.9,73.9,29.9Zm.5-3.3a1.791,1.791,0,0,0,.4-1.3c0-1.3-.8-3.2-2.2-3.2a1.425,1.425,0,0,0-1.2.6A1.844,1.844,0,0,0,71,24c0,1.2.7,3.1,2.2,3.1A1.5,1.5,0,0,0,74.4,26.6Z" transform="translate(-38.1 -17)" fill="#fff"/>
        <path id="Path_111" data-name="Path 111" d="M64.3,29.7A4.158,4.158,0,0,1,60,25.6a4.405,4.405,0,0,1,4.6-4.3,4.076,4.076,0,0,1,4.2,4.1A4.441,4.441,0,0,1,64.3,29.7Zm2.2-1.4a3.394,3.394,0,0,0,.5-1.9c0-1.5-.7-4.5-2.9-4.5a2.271,2.271,0,0,0-1.6.6,2.564,2.564,0,0,0-.8,2.1c0,1.7.9,4.6,3,4.6A2.43,2.43,0,0,0,66.5,28.3Z" transform="translate(-38.1 -17)" fill="#fff"/>
        <path id="Path_112" data-name="Path 112" d="M54.9,29.7a4.158,4.158,0,0,1-4.3-4.1,4.405,4.405,0,0,1,4.6-4.3,4.076,4.076,0,0,1,4.2,4.1A4.312,4.312,0,0,1,54.9,29.7Zm2.2-1.4a3.394,3.394,0,0,0,.5-1.9c0-1.5-.7-4.5-2.9-4.5a2.271,2.271,0,0,0-1.6.6,2.564,2.564,0,0,0-.8,2.1c0,1.7.9,4.6,3,4.6A2.43,2.43,0,0,0,57.1,28.3Z" transform="translate(-38.1 -17)" fill="#fff"/>
        <path id="Path_113" data-name="Path 113" d="M49.5,29.1l-2.4.5a13.124,13.124,0,0,1-2.7.3,5.887,5.887,0,0,1-6.3-6c0-3.2,2.5-6.2,6.7-6.2a10.075,10.075,0,0,1,2.5.3,7.7,7.7,0,0,1,2.2,1l-1.4,1.3-.6.1.4-.7a4.978,4.978,0,0,0-3.5-1.5,4.6,4.6,0,0,0-4.6,4.9,5.782,5.782,0,0,0,5.8,6,4.811,4.811,0,0,0,2.1-.4V26l-2.5.1,1.3-.7H50l-.3.6a.769.769,0,0,0-.2.3v2.8Z" transform="translate(-38.1 -17)" fill="#fff"/>
      </g>
      <g id="Group_132" data-name="Group 132" transform="translate(54.7 1.3)">
        <path id="Path_114" data-name="Path 114" d="M93.7,28.4v4.5h-.9V21.4h.9v1.3a3.626,3.626,0,0,1,2.9-1.5c2.2,0,3.7,1.7,3.7,4.3s-1.5,4.3-3.7,4.3A3.193,3.193,0,0,1,93.7,28.4Zm5.6-2.8c0-2-1-3.5-2.9-3.5a3.59,3.59,0,0,0-2.7,1.7v3.6a3.59,3.59,0,0,0,2.7,1.7C98.2,29.1,99.3,27.6,99.3,25.6Z" transform="translate(-92.8 -18.3)" fill="#fff"/>
        <path id="Path_115" data-name="Path 115" d="M101.5,29.7V18.3h.9V29.7h-.9Z" transform="translate(-92.8 -18.3)" fill="#fff"/>
        <path id="Path_116" data-name="Path 116" d="M112.3,32.1a1.7,1.7,0,0,0,.7.1c.5,0,.9-.2,1.3-1l.6-1.5-3.5-8.3h1l3,7.2,3-7.2h1l-4.3,10.1A2.127,2.127,0,0,1,113,33c-.3,0-.7-.1-.9-.1Z" transform="translate(-92.8 -18.3)" fill="#fff"/>
        <path id="Path_117" data-name="Path 117" d="M109.7,29.7a1.952,1.952,0,0,1-.1-.7v-.6a3.611,3.611,0,0,1-1.3,1.1,3.661,3.661,0,0,1-1.8.4,2.986,2.986,0,0,1-2-.6,2.347,2.347,0,0,1,.3-3.6,4.526,4.526,0,0,1,2.7-.7h2.1V24a1.678,1.678,0,0,0-.6-1.4,2.86,2.86,0,0,0-1.7-.5,2.544,2.544,0,0,0-1.6.5,1.425,1.425,0,0,0-.6,1.2h-.9a1.922,1.922,0,0,1,.9-1.6,3.612,3.612,0,0,1,2.4-.7,3.174,3.174,0,0,1,2.3.7,2.384,2.384,0,0,1,.9,2V28a1.949,1.949,0,0,0,.1.8,2.354,2.354,0,0,0,.2.8h-1.3Zm-3.1-.7a3.83,3.83,0,0,0,1.9-.5,2.3,2.3,0,0,0,1.1-1.3V25.6h-2.1a3.939,3.939,0,0,0-2,.5,1.7,1.7,0,0,0-.8,1.3,1.433,1.433,0,0,0,.5,1.1A1.624,1.624,0,0,0,106.6,29Z" transform="translate(-92.8 -18.3)" fill="#fff"/>
      </g>
    </g>
    <g id="Group_134" data-name="Group 134" transform="translate(0 9.859)">
      <path id="Path_118" data-name="Path 118" d="M26.5,25.1l2.9-2.9h0l-2.9,2.9L17.4,16h0l9.1,9.1-9.1,9.1h0l9.1-9.1L29.4,28h0Z" transform="translate(-16.8 -15.959)" fill="none"/>
      <path id="Path_119" data-name="Path 119" d="M29.4,22.2,18.3,16.1a1.412,1.412,0,0,0-.9-.1l9.1,9.1Z" transform="translate(-16.8 -15.959)" fill="url(#linear-gradient)"/>
      <path id="Path_120" data-name="Path 120" d="M29.4,28l3.8-2.1c.8-.4.8-1.1,0-1.5l-3.8-2.1-2.9,2.9Z" transform="translate(-16.8 -15.959)" fill="url(#linear-gradient-2)"/>
      <path id="Path_121" data-name="Path 121" d="M17.4,16a.956.956,0,0,0-.6,1V33.3a1.1,1.1,0,0,0,.5,1l9.1-9.1Z" transform="translate(-16.8 -15.959)" fill="url(#linear-gradient-3)"/>
      <path id="Path_122" data-name="Path 122" d="M17.4,34.2c.2.1.5,0,.9-.1L29.4,28l-2.9-2.9Z" transform="translate(-16.8 -15.959)" fill="url(#linear-gradient-4)"/>
    </g>
    <g id="Group_136" data-name="Group 136" transform="translate(21.3)">
      <g id="Group_135" data-name="Group 135">
        <path id="Path_123" data-name="Path 123" d="M38.1,9A2.782,2.782,0,0,1,41,6.1a2.369,2.369,0,0,1,2.2,1.2l-.8.5A1.75,1.75,0,0,0,41,7.1a1.866,1.866,0,0,0-1.9,2,1.866,1.866,0,0,0,1.9,2,1.972,1.972,0,0,0,1.3-.5v-1H40.6V8.7h2.6v2.1a2.927,2.927,0,0,1-2.3,1A2.733,2.733,0,0,1,38.1,9Z" transform="translate(-38.1 -6.1)" fill="#fff"/>
        <path id="Path_124" data-name="Path 124" d="M44.5,11.7V6.2h3.8V7H45.5V8.4h2.8v.9H45.5v1.6h2.8v.9H44.5Z" transform="translate(-38.1 -6.1)" fill="#fff"/>
        <path id="Path_125" data-name="Path 125" d="M51.1,11.7V7H49.4V6.2h4.3V7H52v4.7Z" transform="translate(-38.1 -6.1)" fill="#fff"/>
        <path id="Path_126" data-name="Path 126" d="M57.1,11.7V6.2h1v5.6h-1Z" transform="translate(-38.1 -6.1)" fill="#fff"/>
        <path id="Path_127" data-name="Path 127" d="M60.8,11.7V7H59.1V6.2h4.3V7H61.7v4.7Z" transform="translate(-38.1 -6.1)" fill="#fff"/>
        <path id="Path_128" data-name="Path 128" d="M66.6,9a2.759,2.759,0,0,1,2.8-2.9A2.7,2.7,0,0,1,72.2,9a2.759,2.759,0,0,1-2.8,2.9A2.881,2.881,0,0,1,66.6,9Zm4.7,0a1.791,1.791,0,0,0-1.8-2,1.844,1.844,0,0,0-1.8,2,1.81,1.81,0,1,0,3.6,0Z" transform="translate(-38.1 -6.1)" fill="#fff"/>
        <path id="Path_129" data-name="Path 129" d="M77.3,11.7l-2.9-4v4h-1V6.2h1l2.8,3.9V6.2h1v5.6h-.9Z" transform="translate(-38.1 -6.1)" fill="#fff"/>
      </g>
    </g>
  </g>
</svg>
