<svg xmlns="http://www.w3.org/2000/svg" width="122.038" height="32.2" viewBox="0 0 122.038 32.2"><defs><style>.a,.d{fill:#1a54b0;}.b{fill:#14a5a0;}.c{fill:#ea0c27;}.d,.e,.f{fill-rule:evenodd;}.e{fill:#fefefe;}.f{fill:#78b9eb;}</style></defs><g transform="translate(0 0)"><path class="a" d="M29.049-81.441,16.536-55.955a2.322,2.322,0,0,1-.875.949,2.386,2.386,0,0,1-1.281.359,2.354,2.354,0,0,1-1.264-.359,2.455,2.455,0,0,1-.894-.949L-.271-81.441H5.091l9.287,19.036L23.7-81.441Zm20.529,19.83a7.408,7.408,0,0,1-.35,2.147,6.416,6.416,0,0,1-1.134,2.137,6.319,6.319,0,0,1-2.046,1.649,6.526,6.526,0,0,1-3.068.663H34.336a7.408,7.408,0,0,1-2.147-.35A6.416,6.416,0,0,1,30.051-56.5,6.319,6.319,0,0,1,28.4-58.544a6.526,6.526,0,0,1-.663-3.067,7.5,7.5,0,0,1,.35-2.156,6.4,6.4,0,0,1,1.134-2.147,6.319,6.319,0,0,1,2.046-1.649,6.526,6.526,0,0,1,3.068-.663H42.98v4.57H34.337a1.92,1.92,0,0,0-1.511.6,2.147,2.147,0,0,0-.535,1.482,1.819,1.819,0,0,0,.617,1.465,2.188,2.188,0,0,0,1.465.525h8.606a1.935,1.935,0,0,0,1.512-.589,2.113,2.113,0,0,0,.535-1.474v-6.69a1.964,1.964,0,0,0-.58-1.493,2.04,2.04,0,0,0-1.465-.553H32.458v-4.553H42.98a7.408,7.408,0,0,1,2.147.35,6.416,6.416,0,0,1,2.138,1.134,6.319,6.319,0,0,1,1.649,2.046,6.526,6.526,0,0,1,.663,3.068Zm8.956-17.415H53.743v-4.332h4.791Zm0,24.012H53.743V-74.937h4.791ZM84.979-61.74a7.317,7.317,0,0,1-.313,2.221,6.47,6.47,0,0,1-.828,1.733,5.635,5.635,0,0,1-1.2,1.272,6.99,6.99,0,0,1-1.428.856,7.341,7.341,0,0,1-1.511.488,7.221,7.221,0,0,1-1.449.155H69.608a7.228,7.228,0,0,1-2.21-.313,6.333,6.333,0,0,1-1.723-.838A5.814,5.814,0,0,1,64.4-57.374a6.99,6.99,0,0,1-.856-1.428,7.34,7.34,0,0,1-.488-1.511,7.139,7.139,0,0,1-.156-1.428v-6.487a6.65,6.65,0,0,1,.672-3.124,6.461,6.461,0,0,1,1.677-2.083,6.4,6.4,0,0,1,2.184-1.152,7.685,7.685,0,0,1,2.175-.351h8.644v4.791H69.646a2,2,0,0,0-1.455.488,1.914,1.914,0,0,0-.5,1.428v6.451a2.023,2.023,0,0,0,.488,1.474,1.914,1.914,0,0,0,1.428.5h8.644a1.935,1.935,0,0,0,1.455-.5,1.991,1.991,0,0,0,.479-1.438V-83.358h4.791Z" transform="translate(0.271 85.008)"/><path class="b" d="M296.642-48.461a3.006,3.006,0,0,1-.224,1.168,2.811,2.811,0,0,1-1.549,1.549,3.006,3.006,0,0,1-1.168.224H272.638a8.7,8.7,0,0,1-1.74-.191,8.944,8.944,0,0,1-1.841-.6,8.516,8.516,0,0,1-1.74-1.044,7.083,7.083,0,0,1-1.47-1.549,7.684,7.684,0,0,1-1.02-2.111,8.917,8.917,0,0,1-.382-2.706V-69.524a8.7,8.7,0,0,1,.189-1.74,8.95,8.95,0,0,1,.6-1.841,8.249,8.249,0,0,1,1.054-1.74,7.315,7.315,0,0,1,1.561-1.471,7.717,7.717,0,0,1,2.1-1.02,8.806,8.806,0,0,1,2.695-.382h23.735v5.838H272.639a2.371,2.371,0,0,0-1.751.606,2.437,2.437,0,0,0-.606,1.8v15.761a2.354,2.354,0,0,0,.616,1.742,2.354,2.354,0,0,0,1.74.617H290.8v-7.32H275.266v-5.882H293.7a2.881,2.881,0,0,1,1.168.235,2.912,2.912,0,0,1,.932.64,3.021,3.021,0,0,1,.617.932,2.866,2.866,0,0,1,.224,1.134Z" transform="translate(-174.605 77.719)"/><rect class="c" width="5.882" height="15.641" transform="translate(116.206 13.162) rotate(90)"/><rect class="c" width="5.882" height="15.641" transform="translate(111.327 23.923) rotate(180)"/><g transform="translate(99.843 9.855)"><path class="d" d="M137.735,301.071a3.461,3.461,0,0,0,2.17-1.2.456.456,0,0,0,.1-.385,6.125,6.125,0,0,0,1.4-3.61c0-1.724-.811-1.906-2.19-2.19v-.02a.538.538,0,0,0-.466-.264.487.487,0,1,0,0,.974.414.414,0,0,0,.306-.122l.019.021c1.339.284,1.684.345,1.684,1.6a5.678,5.678,0,0,1-1.258,3.245.478.478,0,0,0-.346.142,2.11,2.11,0,0,1-3.488.02.5.5,0,0,0-.345-.162,5.72,5.72,0,0,1-1.277-3.245c0-1.258.364-1.318,1.7-1.6v-.021a.46.46,0,0,0,.324.122.488.488,0,1,0-.466-.71h-.02c-1.358.3-2.19.466-2.19,2.21a6.131,6.131,0,0,0,1.418,3.63.414.414,0,0,0,.1.365,3.629,3.629,0,0,0,2.13,1.2l-.021,2.19a2.917,2.917,0,0,1-5.82,0v-1.926a1.849,1.849,0,0,0,1.643-1.785,1.984,1.984,0,0,0-3.954,0,1.866,1.866,0,0,0,1.642,1.785v1.926a3.591,3.591,0,0,0,7.16,0v-2.19Z" transform="translate(-128.896 -293.404)"/><path class="e" d="M141.936,382.205h0a1.272,1.272,0,0,0,1.319-1.217,1.312,1.312,0,1,0-1.319,1.217Z" transform="translate(-139.972 -374.844)"/><path class="f" d="M147.331,385.5h0a.931.931,0,0,1,.952.913.948.948,0,0,1-.952.933.935.935,0,0,1-.952-.933.918.918,0,0,1,.952-.913Z" transform="translate(-145.386 -380.265)"/></g><rect class="c" width="5.882" height="4.76" transform="translate(111.327 13.043) rotate(180)"/></g></svg>